HIERARCHY
ROOT hips
{
  OFFSET 4.514983404067499e-9 10.105397940993303 1.318478203070619
  CHANNELS 6 Xposition Yposition Zposition Yrotation Xrotation Zrotation
  JOINT spine
  {
    OFFSET -3.891297943093837e-9 0.5743022203102706 0
    CHANNELS 3 Yrotation Xrotation Zrotation
    JOINT chest
    {
      OFFSET 0 1.2550312016247926 0
      CHANNELS 3 Yrotation Xrotation Zrotation
      JOINT upperChest
      {
        OFFSET 0 1.2059856050120283 0
        CHANNELS 3 Yrotation Xrotation Zrotation
        JOINT neck
        {
          OFFSET 0 1.5290392449770056 0
          CHANNELS 3 Yrotation Xrotation Zrotation
          JOINT head
          {
            OFFSET 0 0.8186276690878121 0
            CHANNELS 3 Yrotation Xrotation Zrotation
            JOINT leftEye
            {
              OFFSET 0.4540883942785781 -0.2684596961258452 0.6133497327236779
              CHANNELS 3 Yrotation Xrotation Zrotation
              End Site
              {
                OFFSET 0.4540883942785781 -0.2684596961258452 0.6133497327236779
              }
            }
            JOINT rightEye
            {
              OFFSET -0.4540889229417456 -0.26846010916843954 0.6133525398671689
              CHANNELS 3 Yrotation Xrotation Zrotation
              End Site
              {
                OFFSET -0.4540889229417456 -0.26846010916843954 0.6133525398671689
              }
            }
          }
        }
        JOINT leftShoulder
        {
          OFFSET 1.1700010731725468 -0.4176065950681176 0
          CHANNELS 3 Yrotation Xrotation Zrotation
          JOINT leftUpperArm
          {
            OFFSET 1.1803911524554955 0 0
            CHANNELS 3 Yrotation Xrotation Zrotation
            JOINT leftLowerArm
            {
              OFFSET 2.4406171707858904 0 0
              CHANNELS 3 Yrotation Xrotation Zrotation
              JOINT leftHand
              {
                OFFSET 2.3832177068873874 0 0
                CHANNELS 3 Yrotation Xrotation Zrotation
                JOINT leftIndexProximal
                {
                  OFFSET 0.7310175006235151 0.08192774217833776 0.20404791572985242
                  CHANNELS 3 Yrotation Xrotation Zrotation
                  JOINT leftIndexIntermediate
                  {
                    OFFSET 0.3688845439429529 -0.010662034455094949 -0.014226011560394963
                    CHANNELS 3 Yrotation Xrotation Zrotation
                    JOINT leftIndexDistal
                    {
                      OFFSET 0.2271119941018298 -0.007897656478952575 -0.007580683836364496
                      CHANNELS 3 Yrotation Xrotation Zrotation
                      End Site
                      {
                        OFFSET 0.2271119941018298 -0.007897656478952575 -0.007580683836364496
                      }
                    }
                  }
                }
                JOINT leftLittleProximal
                {
                  OFFSET 0.678269929308182 0.08192620621401336 -0.323876516389586
                  CHANNELS 3 Yrotation Xrotation Zrotation
                  JOINT leftLittleIntermediate
                  {
                    OFFSET 0.34904545821382604 -0.0000017106393073174075 8.629360392919949e-9
                    CHANNELS 3 Yrotation Xrotation Zrotation
                    JOINT leftLittleDistal
                    {
                      OFFSET 0.2011060672849896 0.0031247840072243793 0.0038660318003989197
                      CHANNELS 3 Yrotation Xrotation Zrotation
                      End Site
                      {
                        OFFSET 0.2011060672849896 0.0031247840072243793 0.0038660318003989197
                      }
                    }
                  }
                }
                JOINT leftMiddleProximal
                {
                  OFFSET 0.7368181082522638 0.0819260272939426 0.02272335773438093
                  CHANNELS 3 Yrotation Xrotation Zrotation
                  JOINT leftMiddleIntermediate
                  {
                    OFFSET 0.41136739116025356 -0.0000015892429323649537 5.27860346960507e-8
                    CHANNELS 3 Yrotation Xrotation Zrotation
                    JOINT leftMiddleDistal
                    {
                      OFFSET 0.25378150303820757 -0.0000015332469289752737 1.3442958385345705e-8
                      CHANNELS 3 Yrotation Xrotation Zrotation
                      End Site
                      {
                        OFFSET 0.25378150303820757 -0.0000015332469289752737 1.3442958385345705e-8
                      }
                    }
                  }
                }
                JOINT leftRingProximal
                {
                  OFFSET 0.7284256823094712 0.08192611199801392 -0.1508405069143483
                  CHANNELS 3 Yrotation Xrotation Zrotation
                  JOINT leftRingIntermediate
                  {
                    OFFSET 0.381593741461262 -0.0000016975471202052006 6.592486757883709e-8
                    CHANNELS 3 Yrotation Xrotation Zrotation
                    JOINT leftRingDistal
                    {
                      OFFSET 0.22014536669820362 -0.0027420652959939673 -0.005037497035641991
                      CHANNELS 3 Yrotation Xrotation Zrotation
                      End Site
                      {
                        OFFSET 0.22014536669820362 -0.0027420652959939673 -0.005037497035641991
                      }
                    }
                  }
                }
                JOINT leftThumbProximal
                {
                  OFFSET 0.10842212958334652 -0.16573713992498873 -0.07779936144556289
                  CHANNELS 3 Yrotation Xrotation Zrotation
                  JOINT leftThumbIntermediate
                  {
                    OFFSET 0.40720553822379024 -0.01751267955631075 0.31852684427382305
                    CHANNELS 3 Yrotation Xrotation Zrotation
                    JOINT leftThumbDistal
                    {
                      OFFSET 0.23412859218032667 -0.01859690713588802 0.2146635043319005
                      CHANNELS 3 Yrotation Xrotation Zrotation
                      End Site
                      {
                        OFFSET 0.23412859218032667 -0.01859690713588802 0.2146635043319005
                      }
                    }
                  }
                }
              }
            }
          }
        }
        JOINT rightShoulder
        {
          OFFSET -1.1700037144859516 -0.41760703856471126 0
          CHANNELS 3 Yrotation Xrotation Zrotation
          JOINT rightUpperArm
          {
            OFFSET -1.1803910289368023 0 0
            CHANNELS 3 Yrotation Xrotation Zrotation
            JOINT rightLowerArm
            {
              OFFSET -2.440617418222133 0 0
              CHANNELS 3 Yrotation Xrotation Zrotation
              JOINT rightHand
              {
                OFFSET -2.3832181162662343 0 0
                CHANNELS 3 Yrotation Xrotation Zrotation
                JOINT rightIndexProximal
                {
                  OFFSET -0.7310168852843362 0.08192787643494381 0.20404785424302163
                  CHANNELS 3 Yrotation Xrotation Zrotation
                  JOINT rightIndexIntermediate
                  {
                    OFFSET -0.3688846010723953 -0.01066191355993129 -0.014226020535245201
                    CHANNELS 3 Yrotation Xrotation Zrotation
                    JOINT rightIndexDistal
                    {
                      OFFSET -0.22711216276130997 -0.007898902439410271 -0.007580718044857868
                      CHANNELS 3 Yrotation Xrotation Zrotation
                      End Site
                      {
                        OFFSET -0.22711216276130997 -0.007898902439410271 -0.007580718044857868
                      }
                    }
                  }
                }
                JOINT rightLittleProximal
                {
                  OFFSET -0.6782685897119165 0.08192501740206293 -0.3238766118101876
                  CHANNELS 3 Yrotation Xrotation Zrotation
                  JOINT rightLittleIntermediate
                  {
                    OFFSET -0.34904682243945895 -2.664019085329983e-7 3.792712677253007e-8
                    CHANNELS 3 Yrotation Xrotation Zrotation
                    JOINT rightLittleDistal
                    {
                      OFFSET -0.20110609302945537 0.0031260842677420797 0.0038661724369087186
                      CHANNELS 3 Yrotation Xrotation Zrotation
                      End Site
                      {
                        OFFSET -0.20110609302945537 0.0031260842677420797 0.0038661724369087186
                      }
                    }
                  }
                }
                JOINT rightMiddleProximal
                {
                  OFFSET -0.7368168209984411 0.08192485183145659 0.022723294831187846
                  CHANNELS 3 Yrotation Xrotation Zrotation
                  JOINT rightMiddleIntermediate
                  {
                    OFFSET -0.4113687575187084 -9.03141548214137e-8 4.759541079313312e-8
                    CHANNELS 3 Yrotation Xrotation Zrotation
                    JOINT rightMiddleDistal
                    {
                      OFFSET -0.2537822083525749 -9.554208624251714e-8 -1.6364827826187422e-9
                      CHANNELS 3 Yrotation Xrotation Zrotation
                      End Site
                      {
                        OFFSET -0.2537822083525749 -9.554208624251714e-8 -1.6364827826187422e-9
                      }
                    }
                  }
                }
                JOINT rightRingProximal
                {
                  OFFSET -0.7284243957721679 0.08192492753028224 -0.15084062217729294
                  CHANNELS 3 Yrotation Xrotation Zrotation
                  JOINT rightRingIntermediate
                  {
                    OFFSET -0.381595106800805 -2.5662436442530634e-7 2.929475539925619e-8
                    CHANNELS 3 Yrotation Xrotation Zrotation
                    JOINT rightRingDistal
                    {
                      OFFSET -0.22014544912608125 -0.002738002524970362 -0.0050375115645966
                      CHANNELS 3 Yrotation Xrotation Zrotation
                      End Site
                      {
                        OFFSET -0.22014544912608125 -0.002738002524970362 -0.0050375115645966
                      }
                    }
                  }
                }
                JOINT rightThumbProximal
                {
                  OFFSET -0.10842026863657162 -0.16573778435706465 -0.07779917642461898
                  CHANNELS 3 Yrotation Xrotation Zrotation
                  JOINT rightThumbIntermediate
                  {
                    OFFSET -0.40720600760521597 -0.017512298079938038 0.3185267362029824
                    CHANNELS 3 Yrotation Xrotation Zrotation
                    JOINT rightThumbDistal
                    {
                      OFFSET -0.2341289751103648 -0.018594162598156494 0.21466399510514025
                      CHANNELS 3 Yrotation Xrotation Zrotation
                      End Site
                      {
                        OFFSET -0.2341289751103648 -0.018594162598156494 0.21466399510514025
                      }
                    }
                  }
                }
              }
            }
          }
        }
      }
    }
  }
  JOINT leftUpperLeg
  {
    OFFSET -0.8565189721517369 0.4427277044191169 0
    CHANNELS 3 Yrotation Xrotation Zrotation
    JOINT leftLowerLeg
    {
      OFFSET 0 -3.918486704769693 0
      CHANNELS 3 Yrotation Xrotation Zrotation
      JOINT leftFoot
      {
        OFFSET 6.174701361744139e-7 -0.055233446196002234 4.612027801972084
        CHANNELS 3 Yrotation Xrotation Zrotation
        JOINT leftToes
        {
          OFFSET -3.4372540951010944e-7 -0.705284859504459 1.2256624571888697
          CHANNELS 3 Yrotation Xrotation Zrotation
          End Site
          {
            OFFSET -3.4372540951010944e-7 -0.705284859504459 1.2256624571888697
          }
        }
      }
    }
  }
  JOINT rightUpperLeg
  {
    OFFSET 0.8565189732197466 0.44272769569168136 0
    CHANNELS 3 Yrotation Xrotation Zrotation
    JOINT rightLowerLeg
    {
      OFFSET 0 -3.918486692649319 0
      CHANNELS 3 Yrotation Xrotation Zrotation
      JOINT rightFoot
      {
        OFFSET 6.995136552362391e-7 -0.05523244834012664 4.612028499942008
        CHANNELS 3 Yrotation Xrotation Zrotation
        JOINT rightToes
        {
          OFFSET -4.2566694985479714e-7 -0.7052846587611067 1.22566236096697
          CHANNELS 3 Yrotation Xrotation Zrotation
          End Site
          {
            OFFSET -4.2566694985479714e-7 -0.7052846587611067 1.22566236096697
          }
        }
      }
    }
  }
}
MOTION
Frames: 4
Frame Time: 0.03333333333333333
-0.0029578956309705973 -0.305229903578752 0.06112125888466835 -2.394579672941581 -2.3528146347338477 0.14961641157027736 -0.3555592091408713 -0.1982317618004397 -1.3321002777503863 -2.674513664733164 2.0577772949190405 -0.34144672319011177 0 0 0 0.4007395703402219 -10.662010864340976 1.2513914809401052 3.8305774953239 -4.258730336250266 3.663142178580955 0 0 0 0 0 0 8.549887894645197 0.31344166582584965 -11.649045935125162 -52.93370726240277 -20.495430260325143 -59.21668433427642 -91.7941242888863 1.961970189932691 -0.49802793987006216 -11.136167815204447 6.495906687544231 32.558665867140334 0.24047262019438148 0.00468749996891801 -2.2355340063416134 0.21577113552436653 0.003764757417785085 -2.005929396446848 0.10790723586173083 0.0009531390582480224 -1.0029768555317367 4.298543172283549 0.14672536364394947 -1.7721726692864115 -3.8447780231301802 -0.010707010274819838 -2.463412719869474 0.1079110578260965 0.0009493670087383736 -1.002972373906966 0.23875225274764114 0.004616650096258808 -2.219532030773141 0.21749040906798744 0.003820256873729654 -2.0219283689390766 0.10791808143600161 0.00096000280639288 -1.00296927945176 0.24047262019438148 0.0046874945494563705 -2.2355340063416134 0.21577113552436653 0.003764757417785085 -2.005929396446848 0.10790722252154107 0.0009531389540276066 -1.0029768555317367 4.112043522357919 3.0220718594890847 0.4097275489301798 9.839355462606393 -4.416172357950229 10.247938102924957 2.9275942186021884 -4.775313651965646 6.911059810983493 -0.22845908355616695 0.8189239680447205 11.3904251999931 37.354865443654155 -18.462215938706343 56.83670682291054 92.36007579508029 1.9691159973922379 0.510160062287821 26.210866456896152 -6.204954358206102 -12.752084164510578 0.7154837987348063 0.0411974301170439 -6.591752328526872 0.000007851605426192122 -4.795658668705656e-7 0.000007014714673078499 -0.000005219881561007994 0.00001022242284396857 0.000024231932248931946 0.7154855595060658 0.04119858738084013 -6.591750208202358 0.000004548144748283911 -0.00001426066839371834 0.00002133576414175714 -0.0000021292654343827935 0.000008796708725566461 0.000023358729637353377 0.7154837453781014 0.04119746346758558 -6.591752328526872 0.000007849543001870036 -4.795658668705656e-7 0.000007014741542404448 9.048667890988725e-7 0.0000073709937929423595 0.000018319972167013275 0.7154837987348063 0.0411974201118814 -6.591752328526872 -0.000003994125302319407 -9.461497781977701e-7 0.00005169884991991296 0.0000025989410484158792 0.0000035421836469681713 0.000009356425282854038 -10.686236186077908 -15.33920090268008 -14.74965902611096 -8.804439035154592 6.294279386689108 0.5406438443658288 0.010019206152332795 -0.42494515558741214 -1.4121119426445774 8.825010232910147 -7.511788762464261 3.660997537439898 11.011295410535247 23.783655990648484 7.094466637445581 7.255213938692309 -12.38378659058168 -10.284402338924325 0.00000919100468476 -0.000032449032973791605 -1.1872704020432015e-7 -8.390107596959973 -7.065150533177594 -6.88401345008054 -9.11429981332019 20.71395643856891 -7.546233916274753 -2.2152682934532844 -10.089835758873944 12.829831414619143 -0.000007653138814068802 -0.000027552083663589023 -0.0000033165179489864637
-0.0008354292949661613 -0.30532717835902545 0.06034022197127342 -2.3512671096386897 -2.3595132429578487 0.1826197971048575 -0.36333137008115857 -0.22041687134705393 -1.3846491194696324 -2.737764695951275 2.048881878608254 -0.5289794823769085 0 0 0 0.34018007357616825 -10.534447839839897 1.389627088000026 3.729814673064351 -4.3169777284621835 3.649191869538674 0 0 0 0 0 0 8.39043469536278 0.31670457123251117 -11.570191978455357 -51.85817367484875 -20.709454686814603 -59.1749602622187 -91.82972185505527 1.9631394784901293 -0.49877995283710946 -10.34297055457551 8.517749235071824 30.286360232118447 0.24047262019438148 0.00468749996891801 -2.2355340063416134 0.21577113552436653 0.003764757417785085 -2.005929396446848 0.10790723586173083 0.0009531390582480224 -1.0029768555317367 4.298543172283549 0.14672536364394947 -1.7721726692864115 -3.8447780231301802 -0.010707010274819838 -2.463412719869474 0.1079110578260965 0.0009493670087383736 -1.002972373906966 0.23875225274764114 0.004616650096258808 -2.219532030773141 0.21749040906798744 0.003820256873729654 -2.0219283689390766 0.10791808143600161 0.00096000280639288 -1.00296927945176 0.24047262019438148 0.0046874945494563705 -2.2355340063416134 0.21577113552436653 0.003764757417785085 -2.005929396446848 0.10790722252154107 0.0009531389540276066 -1.0029768555317367 4.112043522357919 3.0220718594890847 0.4097275489301798 9.839355462606393 -4.416172357950229 10.247938102924957 2.9275942186021884 -4.775313651965646 6.911059810983493 -0.19202910810193177 0.8269425834401372 11.497137653411102 35.202576402076254 -18.934705587621362 57.47670438152183 92.52601576535228 1.9712645082065634 0.5137306298793124 26.54359261298137 -6.350463014960897 -11.661522070995723 0.7013155250189439 0.039573722326184745 -6.4607014874237345 0.000007851605426192122 -4.795658668705656e-7 0.000007014714673078499 -0.000005219881561007994 0.00001022242284396857 0.000024231932248931946 0.7013182995761267 0.03957453941443954 -6.460698133920307 0.000004548144748283911 -0.00001426066839371834 0.00002133576414175714 -0.0000021292654343827935 0.000008796708725566461 0.000023358729637353377 0.701315471662075 0.03957375901177986 -6.4607014874237345 0.000007849543001870036 -4.795658668705656e-7 0.000007014741542404448 9.048667890988725e-7 0.0000073709937929423595 0.000018319972167013275 0.701315471662075 0.03957370898596834 -6.4607014874237345 -0.000003994125302319407 -9.461497781977701e-7 0.00005169884991991296 0.0000025989410484158792 0.0000035421836469681713 0.000009356425282854038 -10.69328769200004 -15.313990525205767 -14.615043376638479 -8.804439035154592 6.294279386689108 0.5406438443658288 0.010019206152332795 -0.42494515558741214 -1.4121119426445774 8.811652156017947 -7.504959784237714 3.6200027295539834 11.010472804376423 23.778617835687108 7.0841709509757065 7.231210420912984 -12.381403773247133 -10.259614461383636 0.00000919100468476 -0.000032449032973791605 -1.1872704020432015e-7 -8.414355486771823 -7.074485807957307 -6.9308136198948285 -9.100288106608552 20.73207067836347 -7.5480869593134114 -2.248111572533733 -10.089017136995086 12.84961668037791 -0.000007653138814068802 -0.000027552083663589023 -0.0000033165179489864637
0.0018794990610331297 -0.3047692788839278 0.05762024223804474 -2.281501974758817 -2.349276393173876 0.22893125735714806 -0.38958677834845473 -0.2855909752271841 -1.4935014087385527 -2.913365581127673 1.9263227627012016 -0.866946115408273 0 0 0 0.23505400317171654 -10.284398507159406 1.5898355388182401 3.498366613346513 -4.1551711465563885 3.697025592435363 0 0 0 0 0 0 8.064016868185334 0.3238490340490964 -11.3487253139388 -48.33309390146548 -21.878818752591826 -60.01793298854771 -91.54378538424561 1.9598272438559783 -0.492692378229903 -8.245554427979897 11.085108196641304 28.385655930522265 0.24047262019438148 0.00468749996891801 -2.2355340063416134 0.21577113552436653 0.003764757417785085 -2.005929396446848 0.10790723586173083 0.0009531390582480224 -1.0029768555317367 4.298543172283549 0.14672536364394947 -1.7721726692864115 -3.8447780231301802 -0.010707010274819838 -2.463412719869474 0.1079110578260965 0.0009493670087383736 -1.002972373906966 0.23875225274764114 0.004616650096258808 -2.219532030773141 0.21749040906798744 0.003820256873729654 -2.0219283689390766 0.10791808143600161 0.00096000280639288 -1.00296927945176 0.24047262019438148 0.0046874945494563705 -2.2355340063416134 0.21577113552436653 0.003764757417785085 -2.005929396446848 0.10790722252154107 0.0009531389540276066 -1.0029768555317367 4.112043522357919 3.0220718594890847 0.4097275489301798 9.839355462606393 -4.416172357950229 10.247938102924957 2.9275942186021884 -4.775313651965646 6.911059810983493 -0.08631916721608739 0.8471246911512215 11.716534252292963 29.19832889551571 -20.514267848161055 59.5751295811156 92.48222648898391 1.9709091280952586 0.5127970769321099 28.164762783583463 -9.23459950623656 -9.527580953920367 0.6671891640949752 0.03582287710717647 -6.145091230623581 0.000007851605426192122 -4.795658668705656e-7 0.000007014714673078499 -0.000005219881561007994 0.00001022242284396857 0.000024231932248931946 0.6671844686572901 0.03582190327142088 -6.145093352793658 0.000004548144748283911 -0.00001426066839371834 0.00002133576414175714 -0.0000021292654343827935 0.000008796708725566461 0.000023358729637353377 0.6671891107377288 0.035822910457716045 -6.145091230623581 0.000007849543001870036 -4.795658668705656e-7 0.000007014741542404448 9.048667890988725e-7 0.0000073709937929423595 0.000018319972167013275 0.6671891640949752 0.0358228671020146 -6.145091655057598 -0.000003994125302319407 -9.461497781977701e-7 0.00005169884991991296 0.0000025989410484158792 0.0000035421836469681713 0.000009356425282854038 -10.76582362781523 -15.261419506945334 -14.287463014983885 -8.804439035154592 6.294279386689108 0.5406438443658288 0.010019206152332795 -0.42494515558741214 -1.4121119426445774 8.802339873821833 -7.503028227635096 3.580895581137258 11.004020675249839 23.732891505258674 7.0446896429507495 7.1724871397270515 -12.350840780118878 -10.215796450023232 0.00000919100468476 -0.000032449032973791605 -1.1872704020432015e-7 -8.453937323507187 -7.105409878963637 -7.00257028212921 -9.063120766284797 20.738926612624102 -7.508329376747485 -2.307381415220241 -10.0674510151721 12.84978529454363 -0.000007653138814068802 -0.000027552083663589023 -0.0000033165179489864637
0.003261362900957465 -0.3038108361959395 0.05389110743999481 -2.2384495821203387 -2.3157431161749646 0.24896704447786988 -0.41198556417064264 -0.36033799634613983 -1.5778660078462916 -3.0658487181094487 1.737208236591148 -1.0860352505147746 0 0 0 0.1608311996095011 -10.080630718494575 1.673532284686622 3.2533170331240924 -3.829034425230087 3.7199031694304066 0 0 0 0 0 0 7.882713061153172 0.329544864080417 -11.195367714043224 -44.08431901959701 -23.418344841122074 -61.850828954177345 -91.23589948821501 1.9555539604271506 -0.4861202606086004 -6.589462444718401 11.282181672764754 27.736524217848316 0.24047262019438148 0.00468749996891801 -2.2355340063416134 0.21577113552436653 0.003764757417785085 -2.005929396446848 0.10790723586173083 0.0009531390582480224 -1.0029768555317367 4.298543172283549 0.14672536364394947 -1.7721726692864115 -3.8447780231301802 -0.010707010274819838 -2.463412719869474 0.1079110578260965 0.0009493670087383736 -1.002972373906966 0.23875225274764114 0.004616650096258808 -2.219532030773141 0.21749040906798744 0.003820256873729654 -2.0219283689390766 0.10791808143600161 0.00096000280639288 -1.00296927945176 0.24047262019438148 0.0046874945494563705 -2.2355340063416134 0.21577113552436653 0.003764757417785085 -2.005929396446848 0.10790722252154107 0.0009531389540276066 -1.0029768555317367 4.112043522357919 3.0220718594890847 0.4097275489301798 9.839355462606393 -4.416172357950229 10.247938102924957 2.9275942186021884 -4.775313651965646 6.911059810983493 0.028097458907104595 0.868737886102686 11.925758358039742 22.75504240325697 -22.47750471562182 62.42280875435796 92.01704672587826 1.9651284455447842 0.5028213943429368 30.103589445735896 -12.972729046794969 -9.23063000777923 0.6329523429752547 0.032233335255271486 -5.828622916694517 0.000007851605426192122 -4.795658668705656e-7 0.000007014714673078499 -0.000005219881561007994 0.00001022242284396857 0.000024231932248931946 0.6329544239218149 0.03222638500308285 -5.828619519255102 0.000004548144748283911 -0.00001426066839371834 0.00002133576414175714 -0.0000021292654343827935 0.000008796708725566461 0.000023358729637353377 0.6329523963328588 0.032233371940863655 -5.828622916694517 0.000007849543001870036 -4.795658668705656e-7 0.000007014741542404448 9.048667890988725e-7 0.0000073709937929423595 0.000018319972167013275 0.6329523963328588 0.03223332191505616 -5.828622492014592 -0.000003994125302319407 -9.461497781977701e-7 0.00005169884991991296 0.0000025989410484158792 0.0000035421836469681713 0.000009356425282854038 -10.833931851478079 -15.208208693286176 -13.959339418753448 -8.804439035154592 6.294279386689108 0.5406438443658288 0.010019206152332795 -0.42494515558741214 -1.4121119426445774 8.784355179954698 -7.514410154108161 3.5595740595128778 10.9986840179182 23.656532017355282 7.0493740752519125 7.083160422623432 -12.305673659566326 -10.204044691359002 0.00000919100468476 -0.000032449032973791605 -1.1872704020432015e-7 -8.447676369577259 -7.140900252946671 -7.023789380219933 -9.091419623245256 20.69708924898492 -7.506495558382137 -2.303260805397582 -10.022785887330913 12.847563248813124 -0.000007653138814068802 -0.000027552083663589023 -0.0000033165179489864637
